<svg xmlns="http://www.w3.org/2000/svg" xmlns:xlink="http://www.w3.org/1999/xlink" width="633.098" height="448.027" viewBox="0 0 633.098 448.027">
  <defs>
    <linearGradient id="linear-gradient" y1="0.5" x2="1" y2="0.5" gradientUnits="objectBoundingBox">
      <stop offset="0" stop-color="#00bb9e"/>
      <stop offset="1" stop-color="#00008b"/>
      <stop offset="1"/>
    </linearGradient>
    <linearGradient id="linear-gradient-2" x1="-Infinity" y1="Infinity" x2="-Infinity" y2="Infinity" gradientUnits="objectBoundingBox">
      <stop offset="0" stop-color="#70b"/>
      <stop offset="1" stop-color="#00008b"/>
      <stop offset="1"/>
    </linearGradient>
    <linearGradient id="linear-gradient-4" x1="0.5" y1="0.996" x2="0.5" y2="-0.368" gradientUnits="objectBoundingBox">
      <stop offset="0" stop-color="#87ffff"/>
      <stop offset="1" stop-color="#56009f"/>
    </linearGradient>
    <linearGradient id="linear-gradient-5" x1="0.5" y1="0.996" x2="0.5" y2="-0.355" xlink:href="#linear-gradient-4"/>
    <linearGradient id="linear-gradient-6" y1="0.5" x2="1" y2="0.5" gradientUnits="objectBoundingBox">
      <stop offset="0" stop-color="#270036"/>
      <stop offset="0.594" stop-color="#22003d"/>
      <stop offset="1" stop-color="#272454"/>
    </linearGradient>
    <linearGradient id="linear-gradient-7" x1="-0.545" y1="1.196" x2="0.435" y2="1.196" gradientUnits="objectBoundingBox">
      <stop offset="0" stop-color="#100"/>
      <stop offset="1" stop-color="#204374"/>
    </linearGradient>
    <linearGradient id="linear-gradient-8" x1="-0.868" y1="1.274" x2="0.33" y2="1.274" gradientUnits="objectBoundingBox">
      <stop offset="0" stop-color="#88cfda"/>
      <stop offset="0.008" stop-color="#89cfd9"/>
      <stop offset="0.478" stop-color="#c8d9bb"/>
      <stop offset="0.822" stop-color="#f0dfa7"/>
      <stop offset="1" stop-color="#ffe1a0"/>
    </linearGradient>
    <linearGradient id="linear-gradient-9" x1="-0.534" y1="1.568" x2="0.439" y2="1.568" gradientUnits="objectBoundingBox">
      <stop offset="0"/>
      <stop offset="0.406" stop-color="#b5b5b5"/>
      <stop offset="0.583" stop-color="#fff"/>
      <stop offset="0.877" stop-color="#4c4c4c"/>
      <stop offset="0.879" stop-color="#4e4e4e"/>
      <stop offset="0.909" stop-color="#696969"/>
      <stop offset="0.938" stop-color="#7d7d7d"/>
      <stop offset="0.968" stop-color="#888"/>
      <stop offset="1" stop-color="#8c8c8c"/>
    </linearGradient>
    <linearGradient id="linear-gradient-10" x1="6.973" y1="-1.132" x2="7.963" y2="-1.132" xlink:href="#linear-gradient-7"/>
    <linearGradient id="linear-gradient-11" x1="7.864" y1="-1.331" x2="8.856" y2="-1.331" gradientUnits="objectBoundingBox">
      <stop offset="0" stop-color="#00baff"/>
      <stop offset="0.61" stop-color="#fff"/>
    </linearGradient>
    <linearGradient id="linear-gradient-12" x1="6.953" y1="-1.866" x2="7.941" y2="-1.866" xlink:href="#linear-gradient-9"/>
    <linearGradient id="linear-gradient-13" x1="0" y1="0.5" x2="1" y2="0.5" xlink:href="#linear-gradient-7"/>
    <linearGradient id="linear-gradient-14" x1="0.099" y1="-1.827" x2="0.872" y2="2.656" gradientUnits="objectBoundingBox">
      <stop offset="0"/>
      <stop offset="0.016" stop-color="#030303"/>
      <stop offset="0.417" stop-color="#4c4c4c"/>
      <stop offset="0.428" stop-color="#4e4e4e"/>
      <stop offset="0.566" stop-color="#696969"/>
      <stop offset="0.707" stop-color="#7d7d7d"/>
      <stop offset="0.85" stop-color="#888"/>
      <stop offset="1" stop-color="#8c8c8c"/>
    </linearGradient>
    <linearGradient id="linear-gradient-15" x1="-0.418" y1="0.5" x2="1.178" y2="0.5" gradientUnits="objectBoundingBox">
      <stop offset="0" stop-color="#1a2b63"/>
      <stop offset="1" stop-color="#a6c5ff"/>
    </linearGradient>
    <linearGradient id="linear-gradient-16" x1="0.003" y1="0.499" x2="1.002" y2="0.499" xlink:href="#linear-gradient-7"/>
    <linearGradient id="linear-gradient-17" x1="0.001" y1="0.499" x2="1" y2="0.499" xlink:href="#linear-gradient-7"/>
    <linearGradient id="linear-gradient-18" x1="0.002" y1="0.499" x2="1.001" y2="0.499" xlink:href="#linear-gradient-7"/>
    <linearGradient id="linear-gradient-19" x1="0.276" y1="0.077" x2="0.664" y2="0.861" gradientUnits="objectBoundingBox">
      <stop offset="0" stop-color="#1a1a63"/>
      <stop offset="1" stop-color="#00b1db"/>
    </linearGradient>
    <linearGradient id="linear-gradient-20" x1="0.305" y1="0.072" x2="0.566" y2="0.883" gradientUnits="objectBoundingBox">
      <stop offset="0" stop-color="#a1baff"/>
      <stop offset="1" stop-color="#fff"/>
    </linearGradient>
    <linearGradient id="linear-gradient-21" x1="0.001" y1="0.5" x2="1" y2="0.5" xlink:href="#linear-gradient-20"/>
    <linearGradient id="linear-gradient-22" x1="0.001" y1="0.5" x2="1" y2="0.5" gradientUnits="objectBoundingBox">
      <stop offset="0" stop-color="#1a1f36"/>
      <stop offset="1" stop-color="#60acdb"/>
    </linearGradient>
    <linearGradient id="linear-gradient-23" y1="0.5" x2="1" y2="0.5" gradientUnits="objectBoundingBox">
      <stop offset="0" stop-color="#311a36"/>
      <stop offset="1" stop-color="#8660db"/>
    </linearGradient>
    <linearGradient id="linear-gradient-24" x1="0" y1="0.5" x2="1" y2="0.5" xlink:href="#linear-gradient-20"/>
    <linearGradient id="linear-gradient-25" x1="0.878" y1="0.046" x2="0.089" y2="0.649" xlink:href="#linear-gradient-7"/>
    <linearGradient id="linear-gradient-26" x1="0" y1="0.5" x2="1" y2="0.5" xlink:href="#linear-gradient-20"/>
    <linearGradient id="linear-gradient-27" x1="0" y1="0.5" x2="1" y2="0.5" xlink:href="#linear-gradient-20"/>
    <linearGradient id="linear-gradient-28" x1="0.276" y1="0.04" x2="0.899" y2="0.9" xlink:href="#linear-gradient-7"/>
    <linearGradient id="linear-gradient-29" x1="0" y1="0.5" x2="1" y2="0.5" xlink:href="#linear-gradient-8"/>
    <linearGradient id="linear-gradient-30" x1="0" y1="0.5" x2="1.001" y2="0.5" xlink:href="#linear-gradient-23"/>
    <linearGradient id="linear-gradient-31" x1="0.081" y1="0.193" x2="1.443" y2="1.287" xlink:href="#linear-gradient-11"/>
    <linearGradient id="linear-gradient-32" x1="0.317" y1="0.831" x2="0.87" y2="-0.23" xlink:href="#linear-gradient-20"/>
    <linearGradient id="linear-gradient-33" x1="0.246" y1="1.072" x2="1.077" y2="-0.277" xlink:href="#linear-gradient-20"/>
    <linearGradient id="linear-gradient-34" x1="0.513" y1="0.97" x2="0.481" y2="-0.153" gradientUnits="objectBoundingBox">
      <stop offset="0" stop-color="#1dffff"/>
      <stop offset="0.604" stop-color="#1e2d9f"/>
      <stop offset="1" stop-color="#252fa3"/>
    </linearGradient>
    <linearGradient id="linear-gradient-35" y1="0.5" x2="1" y2="0.5" gradientUnits="objectBoundingBox">
      <stop offset="0" stop-color="#270036"/>
      <stop offset="0.594" stop-color="#00768b"/>
      <stop offset="1" stop-color="#24a1b1"/>
    </linearGradient>
    <linearGradient id="linear-gradient-36" x1="0.678" y1="-0.065" x2="0.037" y2="1.253" gradientUnits="objectBoundingBox">
      <stop offset="0" stop-color="#270036"/>
      <stop offset="0.594" stop-color="#00408b"/>
      <stop offset="1" stop-color="#24a1b1"/>
    </linearGradient>
    <linearGradient id="linear-gradient-37" x1="0.491" y1="0.01" x2="0.53" y2="1.303" gradientUnits="objectBoundingBox">
      <stop offset="0" stop-color="#270036"/>
      <stop offset="0.594" stop-color="#003b8b"/>
      <stop offset="1" stop-color="#2486b1"/>
    </linearGradient>
    <linearGradient id="linear-gradient-38" x1="0.933" y1="-0.237" x2="0.2" y2="1.048" xlink:href="#linear-gradient-20"/>
    <linearGradient id="linear-gradient-39" x1="0.631" y1="0.899" x2="0.027" y2="-0.053" xlink:href="#linear-gradient-20"/>
    <linearGradient id="linear-gradient-40" y1="0.5" x2="1.668" y2="0.5" gradientUnits="objectBoundingBox">
      <stop offset="0" stop-color="#e18300"/>
      <stop offset="0.12" stop-color="#cd7822"/>
      <stop offset="0.444" stop-color="#9b5b79"/>
      <stop offset="0.709" stop-color="#7645b9"/>
      <stop offset="0.9" stop-color="#6038e1"/>
      <stop offset="1" stop-color="#5733f0"/>
    </linearGradient>
    <linearGradient id="linear-gradient-41" x1="0" y1="0.5" x2="1" y2="0.5" xlink:href="#linear-gradient-11"/>
    <linearGradient id="linear-gradient-42" x1="1.323" y1="2.005" x2="0.235" y2="0.16" gradientUnits="objectBoundingBox">
      <stop offset="0" stop-color="#9e1dff"/>
      <stop offset="0.604" stop-color="#0e90ff"/>
    </linearGradient>
    <linearGradient id="linear-gradient-43" x1="0" y1="0.5" x2="1" y2="0.5" xlink:href="#linear-gradient-23"/>
    <linearGradient id="linear-gradient-44" x1="0" y1="0.5" x2="1" y2="0.5" xlink:href="#linear-gradient-23"/>
    <linearGradient id="linear-gradient-45" x1="0" y1="0.5" x2="1" y2="0.5" xlink:href="#linear-gradient-23"/>
    <linearGradient id="linear-gradient-46" x1="0" y1="0.5" x2="1" y2="0.5" xlink:href="#linear-gradient-4"/>
    <linearGradient id="linear-gradient-47" x1="0.502" y1="0.093" x2="0.493" y2="1.135" gradientUnits="objectBoundingBox">
      <stop offset="0" stop-color="#201a63"/>
      <stop offset="1" stop-color="#002adb"/>
    </linearGradient>
    <linearGradient id="linear-gradient-48" x1="0" y1="0.5" x2="1" y2="0.5" xlink:href="#linear-gradient-20"/>
    <linearGradient id="linear-gradient-49" x1="-0.001" y1="0.5" x2="0.999" y2="0.5" xlink:href="#linear-gradient-20"/>
    <linearGradient id="linear-gradient-50" y1="0.5" x2="1" y2="0.5" gradientUnits="objectBoundingBox">
      <stop offset="0" stop-color="#270036"/>
      <stop offset="0.594" stop-color="#4f008b"/>
      <stop offset="1" stop-color="#4c24b1"/>
    </linearGradient>
    <linearGradient id="linear-gradient-51" y1="0.5" x2="1" y2="0.5" gradientUnits="objectBoundingBox">
      <stop offset="0" stop-color="#270036"/>
      <stop offset="0.594" stop-color="#00208b"/>
      <stop offset="1" stop-color="#1d2a8b"/>
    </linearGradient>
    <linearGradient id="linear-gradient-52" x1="0.82" y1="1.23" x2="0.044" y2="-0.052" gradientUnits="objectBoundingBox">
      <stop offset="0" stop-color="#a1baff"/>
      <stop offset="0.185" stop-color="#c1d2ff"/>
      <stop offset="0.382" stop-color="#dce6ff"/>
      <stop offset="0.582" stop-color="#f0f4ff"/>
      <stop offset="0.787" stop-color="#fbfcff"/>
      <stop offset="1" stop-color="#fff"/>
    </linearGradient>
    <linearGradient id="linear-gradient-53" x1="0" y1="0.5" x2="1" y2="0.5" xlink:href="#linear-gradient-52"/>
    <linearGradient id="linear-gradient-54" y1="0.5" x2="1" y2="0.5" gradientUnits="objectBoundingBox">
      <stop offset="0" stop-color="#270036"/>
      <stop offset="0.428" stop-color="#060957"/>
      <stop offset="1" stop-color="#142580"/>
    </linearGradient>
    <linearGradient id="linear-gradient-55" x1="0" y1="0.5" x2="1" y2="0.5" xlink:href="#linear-gradient-52"/>
    <linearGradient id="linear-gradient-56" y1="0.5" x2="0.999" y2="0.5" gradientUnits="objectBoundingBox">
      <stop offset="0" stop-color="#270036"/>
      <stop offset="0.428" stop-color="#4f008b"/>
      <stop offset="1" stop-color="#4c24b1"/>
    </linearGradient>
    <linearGradient id="linear-gradient-57" x1="0" y1="0.5" x2="1" y2="0.5" xlink:href="#linear-gradient-40"/>
    <linearGradient id="linear-gradient-58" x1="1.352" y1="-0.28" x2="-0.883" y2="1.663" xlink:href="#linear-gradient-40"/>
    <linearGradient id="linear-gradient-60" y1="0.5" x2="1" y2="0.5" gradientUnits="objectBoundingBox">
      <stop offset="0" stop-color="#1c1a36"/>
      <stop offset="1" stop-color="#323fa3"/>
    </linearGradient>
    <linearGradient id="linear-gradient-61" x1="0.628" y1="0.837" x2="0.421" y2="0.387" gradientUnits="objectBoundingBox">
      <stop offset="0" stop-color="#311a36"/>
      <stop offset="1" stop-color="#6086db"/>
    </linearGradient>
    <linearGradient id="linear-gradient-62" x1="0.786" y1="0.923" x2="0.51" y2="0.514" gradientUnits="objectBoundingBox">
      <stop offset="0" stop-color="#1b1a36"/>
      <stop offset="1" stop-color="#6069db"/>
    </linearGradient>
    <linearGradient id="linear-gradient-63" y1="0.499" x2="1" y2="0.499" gradientUnits="objectBoundingBox">
      <stop offset="0" stop-color="#311a36"/>
      <stop offset="1" stop-color="#6069db"/>
    </linearGradient>
    <linearGradient id="linear-gradient-64" x1="0.786" y1="0.947" x2="0.431" y2="0.456" gradientUnits="objectBoundingBox">
      <stop offset="0" stop-color="#1d1a36"/>
      <stop offset="1" stop-color="#608bdb"/>
    </linearGradient>
    <linearGradient id="linear-gradient-65" y1="0.5" x2="1" y2="0.5" gradientUnits="objectBoundingBox">
      <stop offset="0" stop-color="#311a36"/>
      <stop offset="1" stop-color="#394b6c"/>
    </linearGradient>
    <linearGradient id="linear-gradient-66" x1="0" y1="0.5" x2="1" y2="0.5" xlink:href="#linear-gradient-7"/>
    <linearGradient id="linear-gradient-67" y1="0.5" x2="1" y2="0.5" gradientUnits="objectBoundingBox">
      <stop offset="0" stop-color="#311a36"/>
      <stop offset="1" stop-color="#6081db"/>
    </linearGradient>
    <linearGradient id="linear-gradient-68" x1="0" y1="0.5" x2="1" y2="0.5" xlink:href="#linear-gradient-7"/>
    <linearGradient id="linear-gradient-69" x1="0" y1="0.5" x2="1" y2="0.5" xlink:href="#linear-gradient-67"/>
    <linearGradient id="linear-gradient-70" x1="0" y1="0.5" x2="1" y2="0.5" xlink:href="#linear-gradient-7"/>
  </defs>
  <g id="loading-speed" transform="translate(-10.87 -39.45)">
    <g id="Group_24" data-name="Group 24" transform="translate(10.87 39.45)">
      <path id="Path_34" data-name="Path 34" d="M327.419,39.45C152.591,39.45,10.87,181.171,10.87,356q0,11.889.868,23.559s34.909,148.665,214.069,97.02c112.864-32.532,174.569,30.171,268.473,2.839C628.8,440.265,643.1,379.558,643.1,379.558q.864-11.67.868-23.559C643.968,181.179,502.239,39.45,327.419,39.45Z" transform="translate(-10.87 -39.45)" fill="url(#linear-gradient)"/>
      <g id="Group_23" data-name="Group 23" transform="translate(18.035 356.91)">
        <path id="Path_39" data-name="Path 39" d="M186.251,491.6c0,6.742-34.284,12.21-76.576,12.21S33.1,498.341,33.1,491.6s34.284-12.21,76.576-12.21S186.251,484.858,186.251,491.6Z" transform="translate(-33.1 -479.39)" fill="#000640" fill-rule="evenodd" opacity="0.5"/>
        <g id="Group_21" data-name="Group 21" transform="translate(392.297 9.143)">
          <path id="Path_40" data-name="Path 40" d="M669.811,502.87c0,6.742-34.284,12.21-76.576,12.21s-76.576-5.468-76.576-12.21,34.284-12.21,76.576-12.21S669.811,496.128,669.811,502.87Z" transform="translate(-516.66 -490.66)" fill="#000640" fill-rule="evenodd" opacity="0.5"/>
        </g>
        <g id="Group_22" data-name="Group 22" transform="translate(294.742 34.674)">
          <path id="Path_41" data-name="Path 41" d="M499.7,534.072c0,6.6-23.121,11.942-51.645,11.942s-51.645-5.346-51.645-11.942,23.121-11.942,51.645-11.942S499.7,527.468,499.7,534.072Z" transform="translate(-396.41 -522.13)" fill="#000640" fill-rule="evenodd" opacity="0.5"/>
        </g>
        <path id="Path_42" data-name="Path 42" d="M363.778,511.206c0,9.224-31.4,16.7-70.134,16.7s-70.134-7.472-70.134-16.7,31.4-16.7,70.134-16.7S363.778,501.982,363.778,511.206Z" transform="translate(-69.036 -482.244)" fill="#000640" fill-rule="evenodd" opacity="0.5"/>
      </g>
      <path id="Path_43" data-name="Path 43" d="M613.68,566.62" transform="translate(-124.639 -138.944)" fill="url(#linear-gradient-2)"/>
      <path id="Path_44" data-name="Path 44" d="M651.28,551.57" transform="translate(-131.735 -136.103)" fill="url(#linear-gradient-2)"/>
    </g>
    <g id="Group_25" data-name="Group 25" transform="translate(71.585 288.501)">
      <rect id="Rectangle_17" data-name="Rectangle 17" width="11.772" height="97.133" transform="translate(5.273 13.167)" fill="url(#linear-gradient-4)"/>
      <rect id="Rectangle_18" data-name="Rectangle 18" width="11.772" height="97.133" transform="translate(439.626 13.167)" fill="url(#linear-gradient-5)"/>
      <rect id="Rectangle_19" data-name="Rectangle 19" width="458.829" height="13.84" transform="translate(0)" fill="url(#linear-gradient-6)"/>
    </g>
    <g id="Group_26" data-name="Group 26" transform="translate(137.014 416.462)">
      <path id="Path_45" data-name="Path 45" d="M167.768,518.407l37.9-14.084a5.771,5.771,0,0,1,4.811,1.006c2.158,1.744,13.5,11.309,13.5,11.309a1.542,1.542,0,0,1-.86,2.418c-1.963.819-37.5,13.97-37.5,13.97a6.2,6.2,0,0,1-4.713-.73c-2.166-1.452-13.3-10.977-13.3-10.977S165.724,519.7,167.768,518.407Z" transform="translate(-166.446 -504.169)" fill="url(#linear-gradient-7)"/>
      <path id="Path_46" data-name="Path 46" d="M170.46,518.99l34.455-12.85L221.043,519.5l-34.276,12.826Z" transform="translate(-167.134 -504.541)" fill="url(#linear-gradient-8)"/>
      <path id="Path_47" data-name="Path 47" d="M224.179,521.04a1.666,1.666,0,0,1-1.144,1.209c-1.963.819-37.5,13.97-37.5,13.97a6.194,6.194,0,0,1-4.713-.73c-2.166-1.452-13.3-10.977-13.3-10.977a2.386,2.386,0,0,1-.787-1.509l-.373,2.2a3.873,3.873,0,0,0,1.5,2.077c1.257.925,12.932,10.733,12.932,10.733a7.219,7.219,0,0,0,4.446.316c2.158-.673,37.716-14.084,37.716-14.084a2.605,2.605,0,0,0,.917-1.217c.105-.617.373-1.979.373-1.979Z" transform="translate(-166.36 -507.353)" fill="url(#linear-gradient-9)"/>
      <path id="Path_48" data-name="Path 48" d="M221.4,510.007l6.831,5.7s.738.049.576-.349-6.742-5.76-6.742-5.76S221.209,509.382,221.4,510.007Z" transform="translate(-176.743 -505.187)"/>
    </g>
    <g id="Group_27" data-name="Group 27" transform="translate(278.191 428.891)">
      <path id="Path_49" data-name="Path 49" d="M396.559,537.995l-36.126-18.164a5.784,5.784,0,0,0-4.892.471c-2.336,1.5-14.66,9.76-14.66,9.76a1.542,1.542,0,0,0,.592,2.5c1.858,1.03,35.745,18,35.745,18a6.218,6.218,0,0,0,4.762-.211c2.312-1.2,14.424-9.451,14.424-9.451S398.449,539.5,396.559,537.995Z" transform="translate(-340.395 -519.489)" fill="url(#linear-gradient-10)"/>
      <path id="Path_50" data-name="Path 50" d="M395.411,538.438,362.579,521.88l-17.5,11.512L377.742,549.9Z" transform="translate(-341.267 -519.94)" fill="url(#linear-gradient-11)"/>
      <path id="Path_51" data-name="Path 51" d="M340.445,533.976a1.624,1.624,0,0,0,1.006,1.322c1.858,1.03,35.744,18,35.744,18a6.218,6.218,0,0,0,4.762-.211c2.312-1.2,14.424-9.451,14.424-9.451a2.38,2.38,0,0,0,.949-1.412l.13,2.231a3.833,3.833,0,0,1-1.72,1.9c-1.347.779-14.035,9.248-14.035,9.248a7.215,7.215,0,0,1-4.454-.178c-2.077-.909-35.939-18.14-35.939-18.14a2.6,2.6,0,0,1-.779-1.314c-.041-.625-.154-2.012-.154-2.012Z" transform="translate(-340.38 -522.22)" fill="url(#linear-gradient-12)"/>
      <path id="Path_52" data-name="Path 52" d="M355.922,524.775l-7.415,4.916s-.738-.032-.535-.414,7.342-4.989,7.342-4.989S356.19,524.174,355.922,524.775Z" transform="translate(-341.806 -520.393)"/>
    </g>
    <g id="Group_28" data-name="Group 28" transform="translate(423.765 438.765)">
      <path id="Path_53" data-name="Path 53" d="M584.652,543.326c0,.552-.576,1.988-1.128,1.988H521.373c-.552,0-1.363-1.355-1.363-1.906l3.18-10.757c.17-.665.446-.99,1-.99h55.369c.552,0,.8.373,1,.99Z" transform="translate(-519.856 -531.66)" fill="url(#linear-gradient-13)"/>
      <path id="Path_54" data-name="Path 54" d="M584.705,546.484a1.4,1.4,0,0,1-1.4,1.4H521.224a1.4,1.4,0,0,1-1.4-1.4h0a1.4,1.4,0,0,1,1.4-1.4H583.3a1.4,1.4,0,0,1,1.4,1.4Z" transform="translate(-519.82 -534.193)" fill="url(#linear-gradient-14)"/>
      <path id="Path_55" data-name="Path 55" d="M525.251,532.73h53.633L582.112,542l-59.352-.089Z" transform="translate(-520.375 -531.862)" fill="url(#linear-gradient-15)"/>
      <circle id="Ellipse_2" data-name="Ellipse 2" cx="0.787" cy="0.787" r="0.787" transform="translate(4.454 11.463)" fill="url(#linear-gradient-16)"/>
      <circle id="Ellipse_3" data-name="Ellipse 3" cx="0.787" cy="0.787" r="0.787" transform="translate(10.457 11.463)" fill="url(#linear-gradient-17)"/>
      <circle id="Ellipse_4" data-name="Ellipse 4" cx="0.787" cy="0.787" r="0.787" transform="translate(56.643 11.463)" fill="url(#linear-gradient-18)"/>
      <path id="Path_56" data-name="Path 56" d="M593.73,535.1l1.793,4.843.746.122-1.8-4.778Z" transform="translate(-533.769 -532.309)"/>
    </g>
    <g id="Group_30" data-name="Group 30" transform="translate(55.968 131.797)">
      <path id="Path_57" data-name="Path 57" d="M140.315,477.367s-2.272,9.086-2.166,14.165,3.456,7.569,6.377,8.113,11.35-.324,12.323-6.166,3.026-20.647,3.57-25.628a41.688,41.688,0,0,0-.649-12.323l-.43-1.3s-2.2,5.273-6.166,7.139a13.054,13.054,0,0,1-9.946.754Z" transform="translate(-79.989 -210.079)" fill="#1a0c4d"/>
      <path id="Path_58" data-name="Path 58" d="M159.71,213.511a21.961,21.961,0,0,1-3.424-7.48l-.146-.081a76.923,76.923,0,0,1,2.053,10.165c.324,3.781.754,18.383.754,18.383l11.577-17.961v-2.369C165.088,215.507,160.529,214.452,159.71,213.511Z" transform="translate(-83.385 -163.221)" fill="none" stroke="#231f20" stroke-linecap="round" stroke-linejoin="round" stroke-miterlimit="10" stroke-width="0.871"/>
      <path id="Path_59" data-name="Path 59" d="M142.076,193.15s-8.9,1.728-13.516,3.172-12.972,3.748-14.27,11.39c1.468-8.656.43,8.672-3.172,30.277a84.429,84.429,0,0,0-.868,11.674,72.8,72.8,0,0,1,8.364,2.45,18.073,18.073,0,0,1,7.35,4.616s-2.166,14.562-4.47,19.746a39.749,39.749,0,0,1-5.914,9.224s4.9-.43,6.344-.292,1.152.868,1.582.722,6.2-3.456,24.216-2.742,26.236,1.444,30.99,4.04,6.344,5.476,6.344,5.476-3.6-17.588-4.178-22.342-1.3-12.826-1.3-12.826l9.662,2.45s3.6-12.4,5.33-19.17,5.046-19.316,3.456-23.494-9.516-10.668-12.112-12.688-7.2-4.324-7.926-4.324C177.285,200.5,142.076,193.15,142.076,193.15Z" transform="translate(-74.725 -160.805)" fill="url(#linear-gradient-19)"/>
      <path id="Path_60" data-name="Path 60" d="M171.271,190.6a46.9,46.9,0,0,0-5.517-4.754c-2.393-1.728-5.371-2.977-5.947-4.219-1.3-2.815-1.3-8.762,1.079-12.972s9.622-11.674,15.349-11.569,6.815.754,6.815.754,1.728-4.868,6.7-4.543,9.622,5.079,9.411,13.086-1.517,20.971-4,24.33-6.815,4.219-8.754,4.973a27.359,27.359,0,0,1-3.351,1.079s-4.105-4.543-5.841-4.868S171.271,190.6,171.271,190.6Z" transform="translate(-83.914 -153.281)" fill="#fcfef9"/>
      <path id="Path_61" data-name="Path 61" d="M176.562,197.787c-1.728-.325-5.947-1.3-5.947-1.3a46.9,46.9,0,0,0-5.517-4.754c-2.393-1.728-5.371-2.977-5.947-4.219a10.289,10.289,0,0,1-.763-3.026h-.105s-3.026,8.543-2.807,13.3,2.7,10.052,4.105,11.674,13.84,3.57,22.813-6.815C182.4,202.646,178.29,198.111,176.562,197.787Z" transform="translate(-83.258 -159.171)" fill="#1a0c4d"/>
      <path id="Path_62" data-name="Path 62" d="M173.87,214.146s.146,8.2.722,10.076a35.123,35.123,0,0,1,1.728,11.244c0,5.768-1.477,26.455-.827,32.4s5.3,13.516,7.788,13.84,5.079-2.053,7.35-4.543,4-4.105,5.4-7.139a59.874,59.874,0,0,0,2.7-8.113l-6.6-1.623s-4-12.112-5.079-19.681-1.947-16.647-1.623-18.708,3.131-9.4,3.131-12.218-.754-3.894-.754-3.894l-1.947.868C185.869,206.666,179.273,213.724,173.87,214.146Z" transform="translate(-86.732 -163.191)" fill="url(#linear-gradient-20)"/>
      <path id="Path_63" data-name="Path 63" d="M200.29,282.707a59.493,59.493,0,0,0,2.7-8.113l-6.571-1.614a45.245,45.245,0,0,1,1.485,6.052,55.4,55.4,0,0,1,.26,7.115A16.552,16.552,0,0,0,200.29,282.707Z" transform="translate(-90.988 -175.872)" fill="url(#linear-gradient-21)"/>
      <path id="Path_64" data-name="Path 64" d="M191.19,251.3l4.219-12.437s-.219,13.946-.324,18.708a78.906,78.906,0,0,0,.219,8.218S191.409,254.753,191.19,251.3Z" transform="translate(-90 -169.432)" fill="url(#linear-gradient-22)"/>
      <path id="Path_65" data-name="Path 65" d="M129.42,261.877s.43-7.245.325-18.919-.105-22.488-.105-22.488,1.947,29.408,1.947,32.329.754,14.27,1.623,15.568,6.815,6.6,6.815,6.6l-11.463-8.1Z" transform="translate(-78.18 -165.961)" fill="url(#linear-gradient-23)"/>
      <path id="Path_66" data-name="Path 66" d="M111.418,262.85s-1.4,16.972,1.4,20.111,9.727,7.894,14.708,9.727,9.727,3.781,9.727,3.781,9.078.219,11.893.105a8.882,8.882,0,0,1,3.675.324s6.052,1.623,7.675,1.623a9.8,9.8,0,0,0,3.351-.754s1.079-.974,1.079-1.517-1.193-1.517-1.193-1.517,1.517-.868,1.517-1.4v-.544l-5.079-2.377-4.43-2.7s3.245.544,4.43-.105,4.324-2.491,2.6-3.456-2.807.649-4.649.544a42.892,42.892,0,0,0-8.218.324,14.993,14.993,0,0,0-4.324,1.947,41.544,41.544,0,0,1-12.761-6.49c-6.815-4.973-8.543-6.49-8.543-6.49l.105-5.728A50.826,50.826,0,0,0,111.418,262.85Z" transform="translate(-74.879 -173.96)" fill="#fcfef9"/>
      <path id="Path_67" data-name="Path 67" d="M161.74,291.012l4.048,2.126-.479-.292s3.245.544,4.43-.105c.925-.5,3.034-1.728,3.1-2.71C169.869,292.594,161.74,291.012,161.74,291.012Z" transform="translate(-84.442 -179.09)" fill="url(#linear-gradient-24)"/>
      <path id="Path_68" data-name="Path 68" d="M117.186,306.658a13.093,13.093,0,0,0-2.02,3.748,27.219,27.219,0,0,0-1.006,4.9,10.6,10.6,0,0,1,4.9-5.768,24.321,24.321,0,0,1,5.192-2.02S123.53,306.082,117.186,306.658Z" transform="translate(-75.462 -182.202)" fill="#1a0c4d"/>
      <path id="Path_69" data-name="Path 69" d="M178.032,313.845s.292,11.674-1.582,16.72-5.768,8.94-13.84,10.238-19.462-1.444-19.462-1.444-1.3-9.8-6.052-11.966-10.668.292-11.966,3.318-6.49,32.435-8.648,43.971-10.522,33.733-12.688,39.071S101.2,426,96.15,433.215s-7.5,8.072-10.376,6.49-8.364-4.47-9.662-4.754-3.172-.722-3.172-.722,8.794-8.94,12.826-17.734a128.222,128.222,0,0,0,9.516-32.727c1.728-11.674,4.616-44.977,6.628-55.5s5.622-16.866,8.5-18.886,11.536-4.9,21.044-5.192,13.264.292,13.264.292,6.2,2.093,8.575,1.842a14.083,14.083,0,0,0,3.967-.974S170.82,304.337,178.032,313.845Z" transform="translate(-67.683 -181.747)" fill="url(#linear-gradient-25)"/>
      <path id="Path_70" data-name="Path 70" d="M85.766,440.964C81.726,449.758,72.94,458.7,72.94,458.7s1.874.43,3.172.722,6.774,3.172,9.662,4.754,5.33.722,10.376-6.49,5.476-14.124,7.642-19.462c.122-.292.26-.641.414-1.038a95.379,95.379,0,0,1-15.5-3.383C87.762,436.372,86.772,438.773,85.766,440.964Z" transform="translate(-67.683 -206.223)" fill="url(#linear-gradient-26)"/>
      <g id="Group_29" data-name="Group 29" transform="translate(0 233.012)">
        <path id="Path_71" data-name="Path 71" d="M73.086,463.864l-.146.43s.3-.3.8-.844Z" transform="translate(-67.683 -444.831)" fill="#1a0c4d"/>
        <path id="Path_72" data-name="Path 72" d="M102.237,440.5l-.073.049c-1.833,5.176-2.523,11.666-7.237,18.408-5.046,7.212-7.5,8.072-10.376,6.49s-8.364-4.47-9.662-4.754-3.172-.722-3.172-.722-4.073,5.079-4.5,7.026-.754,5.4-.754,5.4,15.787,6.6,17.84,6.49,12.648-20.33,14.708-24.216,4.219-7.026,4.219-8.324A56.592,56.592,0,0,0,102.237,440.5Z" transform="translate(-66.46 -440.5)" fill="#1a0c4d"/>
      </g>
      <path id="Path_73" data-name="Path 73" d="M143.643,462.954s-4.754,22.269-2.921,22.918,14.814,1.193,15.893-.43.219-13.621.649-16.647.754-10.165.754-10.165S152.072,466.3,143.643,462.954Z" transform="translate(-80.396 -210.91)" fill="url(#linear-gradient-27)"/>
      <path id="Path_74" data-name="Path 74" d="M153.455,394.325c-.146-7.2-1.314-24.468-1.371-27.64-.105-6.271,1.517-22.091,1.517-22.091s-1.3-9.8-6.052-11.966-10.668.292-11.966,3.318c-1.071,2.491-4.77,22.853-7.253,36.41.746,3.959,5.582,29.709,7.975,42.73,2.6,14.124,5.079,23.932,5.079,23.932,11.715,3.318,16.112-7.894,16.112-7.894s-1.33-8-2.053-11.893S153.6,401.538,153.455,394.325Z" transform="translate(-78.137 -186.974)" fill="url(#linear-gradient-28)"/>
      <path id="Path_75" data-name="Path 75" d="M177.507,290.566c-.754-.325-8.437,3.781-8.437,3.781l.114.114,1.947,1.184,5.079,2.377v.544c0,.544-1.517,1.4-1.517,1.4s.2.162.43.389c1.038-.381,9.232-3.407,9.841-4.827C185.612,294.022,178.262,290.89,177.507,290.566Z" transform="translate(-85.826 -179.187)" fill="#1a0c4d"/>
      <path id="Path_76" data-name="Path 76" d="M154.23,186.62s-2.491.544-7.139,5.3-10.271,11.139-10.271,11.139a20.5,20.5,0,0,0,6.166,0c2.921-.544,5.622-1.4,8.113,1.842s3.667,2.783,3.667,2.783-3.772-6.9-2.588-12.623S154.23,186.62,154.23,186.62Z" transform="translate(-79.739 -159.573)" fill="url(#linear-gradient-29)"/>
      <path id="Path_77" data-name="Path 77" d="M188.66,158.345a12.143,12.143,0,0,0,3.132,2.053c1.623.649,1.728.754,2.053.649s.868-1.623.868-1.623a28.492,28.492,0,0,0-2.6-2.272,6.605,6.605,0,0,0-2.377-1.193A13.5,13.5,0,0,0,188.66,158.345Z" transform="translate(-89.523 -153.786)" fill="url(#linear-gradient-30)"/>
      <path id="Path_78" data-name="Path 78" d="M195.674,153.3a6.229,6.229,0,0,0-5.354,2.312c.576.324,2,1.128,3.083,1.8,1.4.868,1.623,1.517,1.623,1.517l-.868,1.623s4.868,3.026,6.271,7.894,1.517,10.814-.868,15.349-6.377,11.569-6.377,11.569a.025.025,0,0,0,.008.016c2.166-.714,5.719-1.752,7.886-4.665,2.491-3.351,3.781-16.323,4-24.33S200.656,153.621,195.674,153.3Z" transform="translate(-89.836 -153.281)" fill="url(#linear-gradient-31)"/>
      <path id="Path_79" data-name="Path 79" d="M91.01,436.674a57.643,57.643,0,0,0,15.138,4.624,32.349,32.349,0,0,1,1.047-3.067c.122-.292.26-.641.414-1.038a95.379,95.379,0,0,1-15.5-3.383C91.756,434.792,91.383,435.741,91.01,436.674Z" transform="translate(-71.093 -206.225)" fill="url(#linear-gradient-32)"/>
      <path id="Path_80" data-name="Path 80" d="M144.243,462.956s-.324,1.5-.763,3.74c3.326.065,9.906-.089,14.789-2.061.219-2.953.357-6,.357-6S152.672,466.306,144.243,462.956Z" transform="translate(-80.996 -210.912)" fill="url(#linear-gradient-33)"/>
    </g>
    <g id="Group_31" data-name="Group 31" transform="translate(179.109 122.981)">
      <path id="Path_81" data-name="Path 81" d="M319.991,231.2c.219-8.437,1.728-11.893-3.456-15.893a137.32,137.32,0,0,0-14.059-8.867s-4.649-5.728-5.947-7.464-1.947-1.947-1.947-1.947l-25.514-3.351a4.168,4.168,0,0,0-1.947,2.272,14.888,14.888,0,0,1-1.623,3.456s-20.217,3.456-23.892,6.271-9.3,15.244-11.025,20.971-12.112,38.925-12.323,41.732,3.067,9.768,8.4,14.092a52.17,52.17,0,0,0,10.092,5.768l-.105,8.689s9.192-6.377,12-7.894l2.807-1.517a131.621,131.621,0,0,0,16.542-2.377c8.543-1.842,21.19-.105,25.409,1.623s7.139,7.026,7.139,7.026l5.947.219a39.539,39.539,0,0,1,7.35.974,3.7,3.7,0,0,1,2.7,2.6,48.219,48.219,0,0,0-1.842-7.894,5.493,5.493,0,0,0-.69-1.355,4.892,4.892,0,0,0-.284-2.645,27.642,27.642,0,0,1-.974-3.132s1.3-1.517,1.947-9.727S319.772,239.63,319.991,231.2Zm-78.385,39.241-8-4.649s5.184-1.42,7.894-12.323c1.209-4.884,1.947-26.918,1.947-26.918S241.5,246.339,241.5,253.47,241.606,270.442,241.606,270.442Z" transform="translate(-218.247 -152.089)" fill="url(#linear-gradient-34)"/>
      <path id="Path_82" data-name="Path 82" d="M278.042,173.3s9.3.544,14.814-1.4,11.244-7.894,11.244-7.894a19.5,19.5,0,0,0,2.807,3.131,12.736,12.736,0,0,1,1.728,1.4s.105,8.429.105,8,4.43-7.026,4.543-9.727-4.754-20.006-8.324-22.383-9.516-1.947-9.516-1.947-10.814-1.3-16,7.245a46.544,46.544,0,0,0-6.166,16.866,6.433,6.433,0,0,1,2.921,3.675c.754,3.456,1.517,6.271,1.517,6.271Z" transform="translate(-228.634 -142.413)" fill="#fcfef9"/>
      <path id="Path_83" data-name="Path 83" d="M309.677,173.565a12.735,12.735,0,0,0-1.728-1.4,19.44,19.44,0,0,1-2.807-3.132s-5.728,5.947-11.244,7.894-14.814,1.4-14.814,1.4l-.325,3.245s1.728,10.92,4.219,15.138,8.218,8.973,13.086,7.464,8.867-8.762,11.244-14.489a30.307,30.307,0,0,0,2.474-8.624C309.75,179.276,309.677,173.565,309.677,173.565Z" transform="translate(-229.668 -147.437)" fill="#1a0c4d"/>
      <path id="Path_84" data-name="Path 84" d="M275.364,174.21c-.941-1.3-2.377-2.669-2.807-1.582s.576,4.251,2.166,7.2a19.086,19.086,0,0,0,3.172,4.47S276.3,175.508,275.364,174.21Z" transform="translate(-228.478 -148.041)" fill="#1a0c4d"/>
      <path id="Path_85" data-name="Path 85" d="M309.763,344.377c-.681-6.571-2.8-22.237-5.233-29.481h-.024s-2.921-5.3-7.139-7.026-16.866-3.456-25.409-1.623a129.882,129.882,0,0,1-16.542,2.377l-2.807,1.517c-2.807,1.517-12,7.894-12,7.894s-2.775,13.662-.178,20.144,9.224,9.224,12.4,10.238,10.952,1.444,10.952,1.444.722-7.642,2.88-11.674,7.066-6.628,10.092-6.628a6.436,6.436,0,0,1,4.754,2.166s6.344,28.11,10.376,43.1,14.846,47.427,14.846,47.427a68.269,68.269,0,0,0,10.376-3.172c4.9-2.02,5.33-2.742,5.33-2.742s-6.49-28.833-7.35-40.507C314.233,366.143,310.485,351.3,309.763,344.377Z" transform="translate(-222.225 -173.186)" fill="url(#linear-gradient-35)"/>
      <path id="Path_86" data-name="Path 86" d="M324.944,346.6c.138,1.3.381,2.88.69,4.673a.71.71,0,0,0,.178.081s9.224-4.9,10.668-8.364,1.728-9.516,1.3-13.118a69.293,69.293,0,0,0-2.45-9.8s0-2.166-7.642-2.6c-4.494-.251-6.8-.26-7.926-.219C322.178,324.557,324.271,340.069,324.944,346.6Z" transform="translate(-237.406 -175.408)" fill="url(#linear-gradient-36)"/>
      <path id="Path_87" data-name="Path 87" d="M300.754,394.188c-1.217-4.243-2.328-8.169-3.172-11.309-4.04-14.992-10.376-43.1-10.376-43.1a6.436,6.436,0,0,0-4.754-2.166c-3.026,0-7.926,2.6-10.092,6.628s-2.88,11.674-2.88,11.674a150.7,150.7,0,0,1,3.894,19.462c1.582,11.536,4.9,38.495,4.754,50.745s1.3,30.99,1.3,30.99a22.81,22.81,0,0,0,11.1,1.006c6.774-.868,6.774-1.3,6.774-1.3s1.006-21.912,2.3-41.229C300.592,400.848,300.738,395.77,300.754,394.188Z" transform="translate(-227.917 -179.253)" fill="url(#linear-gradient-37)"/>
      <path id="Path_88" data-name="Path 88" d="M276.874,485.29s-5.046,8.794-8.94,13.548-10.238,12.4-10.376,14.124,1.444,5.192,10.238,4.754,14.562-2.45,17.588-6.49,4.04-5.914,7.2-10.522,4.9-6.92,4.9-6.92a15.388,15.388,0,0,0-.576-5.622,15,15,0,0,0-1.874-3.6S285.814,487.164,276.874,485.29Z" transform="translate(-225.665 -206.987)" fill="#1a0c4d"/>
      <path id="Path_89" data-name="Path 89" d="M296.144,484.62c-1.282.333-9.751,2.4-17.994.673,0,0-5.046,8.794-8.94,13.548-1.444,1.76-3.221,3.918-4.9,6.028,2.726,1.566,9.727,5.111,14.846,3.626,6.49-1.874,8.794-6.49,12.25-13.264C293.378,491.41,295.057,487.395,296.144,484.62Z" transform="translate(-226.941 -206.998)" fill="url(#linear-gradient-38)"/>
      <path id="Path_90" data-name="Path 90" d="M322.238,450.492s1.152,4.9,1.006,6.052-2.88,6.774-1.3,9.662,3.318,4.178,4.04,6.052a38.231,38.231,0,0,0,1.728,3.748h2.6s1.006,5.622,5.192,7.2,20.906-1.582,22.488-3.026.292-3.6-1.006-5.046-8.794-8.5-10.238-11.536-8.794-19.032-8.794-19.032S329.45,449.34,322.238,450.492Z" transform="translate(-237.726 -199.44)" fill="url(#linear-gradient-39)"/>
      <path id="Path_91" data-name="Path 91" d="M353.034,473.909c-2.272,1.387-6.368,1.979-10.327,2.572-5.768.868-9.8,1.444-12.112-1.006-1.858-1.971-5.857-12.242-7.35-16.185v.041c-.146,1.152-2.88,6.774-1.3,9.662s3.318,4.178,4.04,6.052a38.231,38.231,0,0,0,1.728,3.748h2.6s1.006,5.622,5.192,7.2,20.906-1.582,22.488-3.026.292-3.6-1.006-5.046C356.441,477.324,354.835,475.759,353.034,473.909Z" transform="translate(-237.726 -202.218)" fill="#1a0c4d"/>
      <path id="Path_92" data-name="Path 92" d="M258.217,294.452c5.736,1.144,6.6,1.623,6.6,1.623s5.079-3.894,6.166-4.543,3.351-1.623,5.079-.544,6.92,3.675,8,5.079a11.373,11.373,0,0,1,1.623,3.351L251.84,297.04C251.832,297.048,255.507,293.908,258.217,294.452Z" transform="translate(-224.587 -170.363)" fill="#fcfef9"/>
      <path id="Path_93" data-name="Path 93" d="M235.31,309.788c.325,0,6.166-1.947,7.35-4.868a17.059,17.059,0,0,0,.974-6.49L316.51,303.4s1.623,3.781.43,5.517-7.245,4.868-7.245,4.868l-5.874-.073s-2.669-5.874-7.861-7.277-14.27-3.456-21.734-2.052-14.595,2.7-16.542,2.807-3.026.105-3.026.105l-1.193.43Z" transform="translate(-221.468 -171.858)" fill="url(#linear-gradient-40)"/>
      <path id="Path_94" data-name="Path 94" d="M246.989,285.886l8.973,5.517s-6.7-5.728-7.569-7.569-1.623-8.324-1.623-8.324Z" transform="translate(-223.63 -167.533)" fill="url(#linear-gradient-41)"/>
      <path id="Path_95" data-name="Path 95" d="M304.079,256.268a1.309,1.309,0,0,1-.56,1.728c-.568.187-1.233-.276-1.493-1.038a1.309,1.309,0,0,1,.56-1.728C303.154,255.035,303.827,255.5,304.079,256.268Z" transform="translate(-234.04 -163.697)" fill="none" stroke="#231f20" stroke-linecap="round" stroke-linejoin="round" stroke-miterlimit="10" stroke-width="0.871"/>
      <path id="Path_96" data-name="Path 96" d="M299.86,250.316s6.02-1.623,9.046-3.456a24.514,24.514,0,0,0,4.073-2.88s5.549,15.747,7.821,20.29,6.166,12.761,6.92,17.191a63.949,63.949,0,0,1,.325,11.463l-19.357-1.4s-2.345-10.052-4.5-19.568C302.018,262.42,299.86,250.316,299.86,250.316Z" transform="translate(-233.65 -161.582)" fill="url(#linear-gradient-42)"/>
      <path id="Path_97" data-name="Path 97" d="M322.07,252.262l.43-8.113s4.754-7.788,7.464-10.7,8.113-7.788,8.113-7.788-12.761,14.919-13.735,18.059-1.3,12-1.3,12Z" transform="translate(-237.842 -158.124)" opacity="0.4" fill="url(#linear-gradient-43)"/>
      <path id="Path_98" data-name="Path 98" d="M307.939,237.688c.162-.146-3.6-9.013-4.251-10.741s-2.88-16.436-3.391-16.939-8.291-5.119-8.721-5.4-7.618,2.109-8.437,2.45c-1.728.722-1.371,3.391,0,3.245a19.182,19.182,0,0,0,4.251-1.582s-3.026,5.768-2.807,7.2,2.726,9.184,3.6,9.151c2.02-.073,1.874-2.231,1.874-2.231s1.079.146,1.444-.219a2.409,2.409,0,0,0,.5-1.006s1.517,7.642,2.523,9.151,2.6,1.517,2.953,3.245,1.582,8.291,1.582,8.291S304.556,240.714,307.939,237.688Z" transform="translate(-230.274 -154.146)" fill="#fcfef9"/>
      <path id="Path_99" data-name="Path 99" d="M245.713,228.79l-.625,31.039s-1.363,5.963-4.348,9.687-3.57,2.9-3.57,2.9,3.537-6.068,5.557-16.809C245.088,243.085,245.98,230.932,245.713,228.79Z" transform="translate(-221.819 -158.715)" opacity="0.4" fill="url(#linear-gradient-44)"/>
      <path id="Path_100" data-name="Path 100" d="M312.978,243.97a23.9,23.9,0,0,1-4.073,2.88c-3.026,1.842-9.046,3.456-9.046,3.456s.276,1.525.714,3.9c3.586-.909,10.457-2.945,13.913-6.02C313.587,245.714,312.978,243.97,312.978,243.97Z" transform="translate(-233.65 -161.58)" opacity="0.4" fill="url(#linear-gradient-45)"/>
    </g>
    <g id="Group_33" data-name="Group 33" transform="translate(423.635 115.534)">
      <path id="Path_101" data-name="Path 101" d="M579.578,225.253c15.138-9.516,16.866-30.707,16.866-30.707l-6.815-5.371-21.62-6.166a10.946,10.946,0,0,1-2.7,3.675c-1.728,1.4-13.118,4.827-13.118,4.827s7.35,20.468,12.688,27.68S576.666,227.086,579.578,225.253Z" transform="translate(-525.799 -142.628)" fill="url(#linear-gradient-46)"/>
      <path id="Path_102" data-name="Path 102" d="M575.82,150.592s2.6,3.026,6.166,2.491,11.35-3.351,15.568-2.807a26.344,26.344,0,0,1,7.026,1.842s1.193-1.3,1.728-5.3a20.484,20.484,0,0,0,.105-6.166s1.3,4.219.649,7.139a41.263,41.263,0,0,1-1.517,5.192,23.3,23.3,0,0,1,2.166,7.894,33.848,33.848,0,0,1-1.079,8.113s8.867-8,9.946-13.621-1.193-13.3-3.026-16-5.728-5.192-10.7-5.947-13.621.754-18.164,3.894C580.144,140.427,576.031,146.7,575.82,150.592Z" transform="translate(-530.259 -133.234)" fill="#fcfef9"/>
      <path id="Path_103" data-name="Path 103" d="M606.73,162.585a23.1,23.1,0,0,0-2.166-7.894,41.258,41.258,0,0,0,1.517-5.192c.649-2.921-.649-7.139-.649-7.139a20.835,20.835,0,0,1-.105,6.166c-.544,4-1.728,5.3-1.728,5.3a26.344,26.344,0,0,0-7.026-1.842c-4.219-.544-12,2.272-15.568,2.807a6.668,6.668,0,0,1-4.851-1.33c-.657,1.266-4.624,9.111-5.419,14.952-.868,6.377,3.464,14.384,4.973,16.112s8.648,3.131,15.349-.105c5.638-2.726,10.814-6.222,14.7-14.149A32.482,32.482,0,0,0,606.73,162.585Z" transform="translate(-529.278 -134.956)" fill="#1a0c4d"/>
      <path id="Path_104" data-name="Path 104" d="M575.1,154.63s-2.953,4.722-3.1,6.815.722,2.6.722,2.6l1.517-3.748,2.174-4.5Z" transform="translate(-529.534 -137.272)" fill="#1a0c4d"/>
      <path id="Path_105" data-name="Path 105" d="M608.6,182.734a3.189,3.189,0,0,0,2.807-.219c1.3-.868,4.754-6.2,5.192-7.5a5.822,5.822,0,0,0,.146-2.669s-1.582,1.8-2.669,2.807-1.257,1.193-1.257,1.193S609.752,181.29,608.6,182.734Z" transform="translate(-536.446 -140.616)" fill="#1a0c4d"/>
      <path id="Path_106" data-name="Path 106" d="M519.66,221.182s2.3-16.72,5.046-19.17,6.2-3.318,12.542-5.622,8.794-2.88,8.794-2.88,7.35,20.468,12.688,27.68,11.8,7.886,14.7,6.052c15.138-9.516,16.866-30.707,16.866-30.707s17.012,7.35,19.316,9.662,3.026,13.694,3.026,13.694l-10.668,3.172S594.905,247,593.9,257.089s2.742,24.792,2.742,24.792-22.918-3.318-36.037-3.456-21.19.292-21.19.292v-51.9C539.414,226.8,527.74,222.05,519.66,221.182Z" transform="translate(-519.66 -144.61)" fill="url(#linear-gradient-47)"/>
      <g id="Group_32" data-name="Group 32" transform="translate(55.732 43.854)">
        <path id="Path_107" data-name="Path 107" d="M625.11,219.076s-1.193,10.49-1.3,13.41.219,21.085-1.622,25.733-3.894,8-7.026,9.4-9.3-1.517-10.6-4.219-4.868-12.437-4.868-17.515-1.193-26.382-1.623-27.891-4.543-6.6-4.973-9.3-1.444-8.794-2.166-9.946-3.172-3.894-2.45-4.324a10.879,10.879,0,0,1,2.3-.8,5.916,5.916,0,0,1,2.377-2.02,11.518,11.518,0,0,1,1.874-.5s3.172-2.523,4.324-2.6l1.152-.073a16.142,16.142,0,0,1,4.324-1.152c1.517,0,2.377.219,2.02,2.02s-1.947,6.563-1.947,8.867A82.71,82.71,0,0,0,606,212.017c.933,4.4,6.052,16.866,6.052,16.866l2.888-6.993s8.794-2.45,10.238-3.1" transform="translate(-588.358 -187.29)" fill="#fff"/>
        <path id="Path_108" data-name="Path 108" d="M617.4,235.8s4.754,10.952,6.49,17.3,2.166,8.5,2.166,8.5,1.006-21.336,1.006-26.236a62.29,62.29,0,0,1,.43-7.926l-7.066,2.02Z" transform="translate(-593.839 -194.868)" fill="url(#linear-gradient-48)"/>
        <path id="Path_109" data-name="Path 109" d="M594.73,202.636c-.105-2.053-.325-6.92-.325-6.92H593l-.325,1.728s-1.3.219-1.622-.544a4.139,4.139,0,0,1,.105-2.166s-.049-.008-.122-.024a3.308,3.308,0,0,0-.235.316,10.272,10.272,0,0,0-2.3.8c-.722.43,1.728,3.172,2.45,4.324s1.728,7.245,2.166,9.946a13.139,13.139,0,0,0,1.777,3.943C594.624,210.181,594.811,204.291,594.73,202.636Z" transform="translate(-588.36 -188.69)" fill="url(#linear-gradient-49)"/>
      </g>
      <path id="Path_110" data-name="Path 110" d="M601.2,301.557a32.1,32.1,0,0,1,6.344,12.688c2.02,7.926,2.02,19.17,1.152,23.786a18.051,18.051,0,0,1-2.88,7.212s-11.39,26.958-11.966,34.6-5.914,39.647-7.642,47.573-1.874,11.1-1.874,13.84-1.444,5.046-1.444,6.344v3.318s-2.166,4.754-5.476,4.04a16.014,16.014,0,0,1-5.914-2.45c-.576-.43-6.052-4.04-6.052-4.04s2.45-2.6,2.88-3.894,1.3-4.9,2.02-6.774.146-11.966-.146-20.184-3.172-45.7-3.6-50.453-1.444-24.508-1.444-24.508L543.82,302.433l.146-4.032C543.974,298.385,582.753,295.789,601.2,301.557Z" transform="translate(-524.22 -164.293)" fill="url(#linear-gradient-50)"/>
      <path id="Path_111" data-name="Path 111" d="M601.2,301.557a32.1,32.1,0,0,1,6.344,12.688c2.02,7.926,2.02,19.17,1.152,23.786a18.051,18.051,0,0,1-2.88,7.212s-11.39,26.958-11.966,34.6-5.914,39.647-7.642,47.573-1.874,11.1-1.874,13.84-1.444,5.046-1.444,6.344v3.318s-2.166,4.754-5.476,4.04a16.014,16.014,0,0,1-5.914-2.45c-.576-.43-6.052-4.04-6.052-4.04s2.45-2.6,2.88-3.894,1.3-4.9,2.02-6.774.146-11.966-.146-20.184-3.172-45.7-3.6-50.453-1.444-24.508-1.444-24.508L543.82,302.433l.146-4.032C543.974,298.385,582.753,295.789,601.2,301.557Z" transform="translate(-524.22 -164.293)" opacity="0.5" fill="url(#linear-gradient-51)"/>
      <path id="Path_112" data-name="Path 112" d="M520.55,227.44s1.006,19.316,2.742,30.131,4.754,20.906,7.5,22.2,17.442,4.616,31.859,5.768,20.906,1.444,20.906,1.444,3.78,2.491,7.464,2.491a47.68,47.68,0,0,0,8.762-1.193s4.219.868,5.192.43,1.193-2.377.649-3.026l-.544-.649s2.807-1.079,2.491-2.166a3.993,3.993,0,0,0-1.517-1.842s2.921-.324,3.131-1.193.219-2.052-.43-2.377a4.414,4.414,0,0,1-1.193-.974s1.842-.754,2.166-1.947-.868-2.166-2.491-2.6-12.972-.219-15.568.754-6.166,4.324-9.516,4.105-19.681-3.57-27.68-7.35-12.323-5.947-12.437-7.464-2.45-28.792-2.45-28.792S528.046,228.99,520.55,227.44Z" transform="translate(-519.828 -151.013)" fill="url(#linear-gradient-52)"/>
      <path id="Path_113" data-name="Path 113" d="M591.7,454.435c-6.117.422-13.029-.917-16.234-1.655.26,6.547.471,12.818-.081,14.254-.722,1.874-1.582,5.476-2.02,6.774s-2.88,3.894-2.88,3.894,5.476,3.6,6.052,4.04a16.015,16.015,0,0,0,5.914,2.45c3.318.722,5.476-4.04,5.476-4.04v-3.318c0-1.3,1.444-3.6,1.444-6.344s.146-5.914,1.874-13.84C591.38,456.049,591.534,455.3,591.7,454.435Z" transform="translate(-529.253 -193.542)" fill="url(#linear-gradient-53)"/>
      <path id="Path_114" data-name="Path 114" d="M523.93,325.994s1,10.417,4.616,14.708c3.894,4.616,15.138,7.926,21.336,7.642s10.668-3.894,13.694-5.914,5.622-3.172,6.628-1.582,11.536,21.336,17.442,31.137,20.038,29.692,21.336,33.449,1.444,6.2,2.3,7.788a12.073,12.073,0,0,0,2.742,3.748c1.3,1.152,4.47,3.318,6.774,2.742s5.768-6.052,7.5-7.066l1.728-1.006s-4.47-6.344-6.2-8.648-5.046-5.338-7.35-9.224-9.946-36.037-15.422-49.877-9.516-26.666-17.734-30.99-43.249-9.37-43.249-9.37.584,2.2-1.444,5.768C536.391,313.217,531.2,318.871,523.93,325.994Z" transform="translate(-520.466 -165.374)" fill="url(#linear-gradient-54)"/>
      <path id="Path_115" data-name="Path 115" d="M674.046,451.912c-3.318-2.6-9.37-4.616-11.82-7.2s-9.224-8.648-9.8-8.648a7.27,7.27,0,0,0-1.874.576l-1.728,1.006c-1.728,1.006-5.192,6.49-7.5,7.066s-5.476-1.582-6.774-2.742a9.454,9.454,0,0,1-1.874-2.239c-.016.8-.26,6.523.576,9.443a50.49,50.49,0,0,0,3.894,8.218l2.6.576,1.874-1.3s6.052,6.344,9.8,6.774,12.972-1.582,18.74-4.04,5.914-3.456,5.914-3.456S677.364,454.508,674.046,451.912Z" transform="translate(-540.982 -190.387)" fill="#1a0c4d"/>
      <path id="Path_116" data-name="Path 116" d="M641.072,462.262s-1.728-3.748-1.3-3.456,3.172,2.166,3.172,2.166Z" transform="translate(-542.316 -194.676)"/>
      <path id="Path_117" data-name="Path 117" d="M667.62,466.625a58.137,58.137,0,0,0,9.135-2.88c5.768-2.45,5.914-3.456,5.914-3.456a1.417,1.417,0,0,0,.195-1.249c-1.671.584-4.178,1.477-6.109,2.263A73.938,73.938,0,0,0,667.62,466.625Z" transform="translate(-547.585 -194.724)"/>
      <path id="Path_118" data-name="Path 118" d="M633.669,411.976c-.779-1.314-2.166-5.865-3.878-11.836a76.7,76.7,0,0,0-14.781,5.719c5.3,7.95,10.409,15.609,11.163,17.791,1.3,3.748,1.444,6.2,2.3,7.788a12.074,12.074,0,0,0,2.742,3.748c1.3,1.152,4.47,3.318,6.774,2.742s5.768-6.052,7.5-7.066l1.728-1.006s-4.47-6.344-6.2-8.648S635.973,415.871,633.669,411.976Z" transform="translate(-537.656 -183.607)" fill="url(#linear-gradient-55)"/>
      <path id="Path_119" data-name="Path 119" d="M577.383,489.99a16.015,16.015,0,0,1-5.914-2.45c-.576-.43-6.052-4.04-6.052-4.04s-10.952,10.376-14.846,12.972a35.266,35.266,0,0,1-5.476,3.026c-.868.576-1.444,3.456-1.444,3.456a25.611,25.611,0,0,0,10.376,5.768c5.914,1.444,11.1,3.172,14.846.43a78.6,78.6,0,0,0,8.94-8.5l2.45.868,3.026-3.6s.868-3.6,1.3-5.046-1.728-6.92-1.728-6.92S580.7,490.712,577.383,489.99Z" transform="translate(-524.188 -199.34)" fill="#1a0c4d"/>
      <path id="Path_120" data-name="Path 120" d="M580.271,503.536l3.026-3.6s.868-3.6,1.3-5.046a2.024,2.024,0,0,0,.049-.7c-2.474,2.823-13.053,14.725-16.485,16.12-3.894,1.582-10.092-.292-14.416-1.582a49.913,49.913,0,0,1-9.824-4.843c-.17.608-.268,1.087-.268,1.087a25.611,25.611,0,0,0,10.376,5.768c5.914,1.444,11.1,3.172,14.846.43a78.606,78.606,0,0,0,8.94-8.5Z" transform="translate(-524.188 -201.358)"/>
      <path id="Path_121" data-name="Path 121" d="M588.22,502.16v2.88l-2.45-.86Z" transform="translate(-532.137 -202.862)" fill="none" stroke="#231f20" stroke-linecap="round" stroke-linejoin="round" stroke-miterlimit="10" stroke-width="0.871"/>
      <path id="Path_122" data-name="Path 122" d="M543.927,231.564l-.357-12.834s5.192,37.627,7.788,42.17a19.445,19.445,0,0,0,7.464,6.92s-11.35-4.754-12.437-7.464S543.927,231.564,543.927,231.564Z" transform="translate(-524.173 -149.37)" fill="url(#linear-gradient-56)"/>
      <path id="Path_123" data-name="Path 123" d="M520.106,222.98l19.04,4.8.268,4.584-19.754-5.622Z" transform="translate(-519.66 -150.172)" fill="url(#linear-gradient-57)"/>
      <path id="Path_124" data-name="Path 124" d="M621.13,228.5l.057-.487.349-3.164,10.1-2.482.162,2.961" transform="translate(-538.811 -150.057)" fill="url(#linear-gradient-58)"/>
    </g>
    <g id="Group_35" data-name="Group 35" transform="translate(298.806 119.72)">
      <path id="Path_125" data-name="Path 125" d="M412.228,191s-9.687,13.321,0,20.89,40.823,13.4,37.8,4.219-14.384-31.283-14.384-31.283-6.174-7.447-12.331-9.76" transform="translate(-373.742 -145.316)" fill="url(#linear-gradient-46)"/>
      <path id="Path_126" data-name="Path 126" d="M386.437,198.182s-9.192,4.105-12.972,7.026S364.7,213.32,366,225.1s4.43,39.679,4.43,39.679,9.3,9.4,9.516,10.49a4.927,4.927,0,0,1-.43,2.491s-4.754,4.649-4.219,8.429,3.14,7.245,3.14,6.92,3.57-14.376,15.463-16.323,24.435-5.4,37.732-4.649,21.409,6.052,21.409,6.052l13.84-4.324s-4.219-6.377-4.219-8.218-3.456-75.9-3.456-75.9-4-.544-10.92-1.947-15.787-3.132-16.972-4.105-3.57-7.675-6.7-8.113a47.031,47.031,0,0,0-5.728-.43,18.469,18.469,0,0,0,4.219,5.192l2.807,2.377s.974,4.324-3.245,14.27a150.9,150.9,0,0,1-6.377,13.735s-7.569-6.052-9.841-9.727l-2.272-3.675Z" transform="translate(-365.791 -145.331)" fill="url(#linear-gradient-60)"/>
      <path id="Path_127" data-name="Path 127" d="M382.71,298.108c.974.089,10.9,1.915,16.2-2.223a21.809,21.809,0,0,0,6.953-10.6l-8.94-2.32-13.743,9.435" transform="translate(-368.984 -165.68)" opacity="0.5" fill="url(#linear-gradient-61)"/>
      <path id="Path_128" data-name="Path 128" d="M407.47,256.236s44.944.495,48.173-2.231,5.216-4.47,5.216-6.953,5.711-49.163,5.711-49.163-6.7,7.7-10.181,21.856a192.472,192.472,0,0,0-4.47,28.808s-13.378,2.3-17.88,2.734c-6.49.617-26.074.99-26.074.99" transform="translate(-373.657 -149.623)" opacity="0.5" fill="url(#linear-gradient-62)"/>
      <path id="Path_129" data-name="Path 129" d="M431.22,175.145s5.947-.754,6.7,2.921.325,4.649.325,4.649S432.518,178.926,431.22,175.145Z" transform="translate(-378.139 -145.318)" fill="url(#linear-gradient-63)"/>
      <path id="Path_130" data-name="Path 130" d="M407.151,253.989c-.024-.324,24.654-.649,30.163-1.3s17.621-3.351,17.621-3.351.649-23.462,3.456-36.548,6.7-20.217,9.841-19.787,11.569,4.543,13.191,28.979-6.49,46.056-9.622,48.765-13.3,3.131-19.681,3.131-25.3-4.105-33.513-4.649A97.983,97.983,0,0,1,405.09,267.5S407.475,257.883,407.151,253.989Z" transform="translate(-373.208 -148.698)" fill="url(#linear-gradient-64)"/>
      <path id="Path_131" data-name="Path 131" d="M388.484,211.917s-3.026,12.615-4.4,18.31-5.841,15.925-8.648,22.342-5.4,17.223-3.026,21.409,7.277,7.715,11.747,8.429,9.946-1.225,12.112-4.47,5.265-17.945,4.616-27.607-1.655-24.289-1.517-26.666,1.8-9.8,1.8-9.8S394.893,209.686,388.484,211.917Z" transform="translate(-366.865 -152.147)" fill="url(#linear-gradient-65)"/>
      <g id="Group_34" data-name="Group 34" transform="translate(2.287 40.811)">
        <path id="Path_132" data-name="Path 132" d="M432.29,228.8a2.15,2.15,0,1,1-2.15-2.15A2.154,2.154,0,0,1,432.29,228.8Z" transform="translate(-379.817 -195.862)" fill="none" stroke="#ff9300" stroke-linecap="round" stroke-linejoin="round" stroke-width="1.13"/>
        <path id="Path_133" data-name="Path 133" d="M444.32,214.11a2.15,2.15,0,1,1-2.15-2.15A2.154,2.154,0,0,1,444.32,214.11Z" transform="translate(-382.087 -193.09)" fill="none" stroke="#ff9300" stroke-linecap="round" stroke-linejoin="round" stroke-width="1.13"/>
        <path id="Path_134" data-name="Path 134" d="M447.79,190.85a2.15,2.15,0,1,1-2.15-2.15A2.154,2.154,0,0,1,447.79,190.85Z" transform="translate(-382.742 -188.7)" fill="none" stroke="#ff9300" stroke-linecap="round" stroke-linejoin="round" stroke-width="1.13"/>
        <path id="Path_135" data-name="Path 135" d="M460.24,198.81a2.15,2.15,0,1,1-2.15-2.15A2.154,2.154,0,0,1,460.24,198.81Z" transform="translate(-385.092 -190.202)" fill="none" stroke="#ff9300" stroke-linecap="round" stroke-linejoin="round" stroke-width="1.13"/>
        <path id="Path_136" data-name="Path 136" d="M484.12,197.28a2.15,2.15,0,1,1-2.15-2.15A2.154,2.154,0,0,1,484.12,197.28Z" transform="translate(-389.599 -189.914)" fill="none" stroke="#ff9300" stroke-linecap="round" stroke-linejoin="round" stroke-width="1.13"/>
        <path id="Path_137" data-name="Path 137" d="M467.18,215.34a2.15,2.15,0,1,1-2.15-2.15A2.154,2.154,0,0,1,467.18,215.34Z" transform="translate(-386.402 -193.322)" fill="none" stroke="#ff9300" stroke-linecap="round" stroke-linejoin="round" stroke-width="1.13"/>
        <path id="Path_138" data-name="Path 138" d="M460.85,233.5a2.15,2.15,0,1,1-2.15-2.15A2.154,2.154,0,0,1,460.85,233.5Z" transform="translate(-385.207 -196.749)" fill="none" stroke="#ff9300" stroke-linecap="round" stroke-linejoin="round" stroke-width="1.13"/>
        <path id="Path_139" data-name="Path 139" d="M448.41,250.64a2.15,2.15,0,1,1-2.15-2.15A2.154,2.154,0,0,1,448.41,250.64Z" transform="translate(-382.859 -199.984)" fill="none" stroke="#ff9300" stroke-linecap="round" stroke-linejoin="round" stroke-width="1.13"/>
        <path id="Path_140" data-name="Path 140" d="M433.31,264.31a2.15,2.15,0,1,1-2.15-2.15A2.148,2.148,0,0,1,433.31,264.31Z" transform="translate(-380.009 -202.564)" fill="none" stroke="#ff9300" stroke-linecap="round" stroke-linejoin="round" stroke-width="1.13"/>
        <path id="Path_141" data-name="Path 141" d="M413.72,244.72a2.15,2.15,0,1,1-2.15-2.15A2.154,2.154,0,0,1,413.72,244.72Z" transform="translate(-376.312 -198.867)" fill="none" stroke="#ff9300" stroke-linecap="round" stroke-linejoin="round" stroke-width="1.13"/>
        <path id="Path_142" data-name="Path 142" d="M406.15,222.16a2.15,2.15,0,1,1,0,4.3" transform="translate(-375.695 -195.015)" fill="none" stroke="#ff9300" stroke-linecap="round" stroke-linejoin="round" stroke-width="1.13"/>
        <path id="Path_143" data-name="Path 143" d="M388.21,223.29a2.15,2.15,0,1,1-2.15-2.15A2.154,2.154,0,0,1,388.21,223.29Z" transform="translate(-371.498 -194.822)" fill="none" stroke="#ff9300" stroke-linecap="round" stroke-linejoin="round" stroke-width="1.13"/>
        <path id="Path_144" data-name="Path 144" d="M372.91,234.31a2.15,2.15,0,1,1-2.15-2.15A2.154,2.154,0,0,1,372.91,234.31Z" transform="translate(-368.61 -196.902)" fill="none" stroke="#ff9300" stroke-linecap="round" stroke-linejoin="round" stroke-width="1.13"/>
        <path id="Path_145" data-name="Path 145" d="M460.85,279.21a2.15,2.15,0,1,1-2.15-2.15A2.154,2.154,0,0,1,460.85,279.21Z" transform="translate(-385.207 -205.376)" fill="none" stroke="#ff9300" stroke-linecap="round" stroke-linejoin="round" stroke-width="1.13"/>
        <path id="Path_146" data-name="Path 146" d="M485.95,275.94a2.15,2.15,0,1,1-2.15-2.15A2.148,2.148,0,0,1,485.95,275.94Z" transform="translate(-389.944 -204.759)" fill="none" stroke="#ff9300" stroke-linecap="round" stroke-linejoin="round" stroke-width="1.13"/>
        <path id="Path_147" data-name="Path 147" d="M492.07,245.74a2.15,2.15,0,1,1-2.15-2.15A2.154,2.154,0,0,1,492.07,245.74Z" transform="translate(-391.099 -199.059)" fill="none" stroke="#ff9300" stroke-linecap="round" stroke-linejoin="round" stroke-width="1.13"/>
        <path id="Path_148" data-name="Path 148" d="M492.48,218.4a2.15,2.15,0,1,1-2.15-2.15A2.154,2.154,0,0,1,492.48,218.4Z" transform="translate(-391.177 -193.9)" fill="none" stroke="#ff9300" stroke-linecap="round" stroke-linejoin="round" stroke-width="1.13"/>
        <path id="Path_149" data-name="Path 149" d="M471.87,255.13a2.15,2.15,0,1,1-2.15-2.15A2.148,2.148,0,0,1,471.87,255.13Z" transform="translate(-387.287 -200.832)" fill="none" stroke="#ff9300" stroke-linecap="round" stroke-linejoin="round" stroke-width="1.13"/>
        <path id="Path_150" data-name="Path 150" d="M433.51,280.43a2.15,2.15,0,1,1-2.15-2.15A2.154,2.154,0,0,1,433.51,280.43Z" transform="translate(-380.047 -205.607)" fill="none" stroke="#ff9300" stroke-linecap="round" stroke-linejoin="round" stroke-width="1.13"/>
        <circle id="Ellipse_5" data-name="Ellipse 5" cx="2.15" cy="2.15" r="2.15" transform="translate(86.327 85.5)" stroke-width="1.13" stroke="#ff9300" stroke-linecap="round" stroke-linejoin="round" fill="none"/>
        <path id="Path_151" data-name="Path 151" d="M419.23,291.04a2.15,2.15,0,1,1-2.15-2.15A2.148,2.148,0,0,1,419.23,291.04Z" transform="translate(-377.352 -207.609)" fill="none" stroke="#ff9300" stroke-linecap="round" stroke-linejoin="round" stroke-width="1.13"/>
        <path id="Path_152" data-name="Path 152" d="M377.6,214.83a2.15,2.15,0,1,1-2.15-2.15A2.154,2.154,0,0,1,377.6,214.83Z" transform="translate(-369.495 -193.226)" fill="none" stroke="#ff9300" stroke-linecap="round" stroke-linejoin="round" stroke-width="1.13"/>
        <path id="Path_153" data-name="Path 153" d="M416.37,279.41a2.15,2.15,0,1,1-2.15-2.15A2.154,2.154,0,0,1,416.37,279.41Z" transform="translate(-376.812 -205.414)" fill="none" stroke="#ff9300" stroke-linecap="round" stroke-linejoin="round" stroke-width="1.13"/>
        <circle id="Ellipse_6" data-name="Ellipse 6" cx="2.15" cy="2.15" r="2.15" transform="translate(7.942 75.983)" stroke-width="1.13" stroke="#ff9300" stroke-linecap="round" stroke-linejoin="round" fill="none"/>
        <path id="Path_154" data-name="Path 154" d="M385.15,261.25A2.15,2.15,0,1,1,383,259.1,2.148,2.148,0,0,1,385.15,261.25Z" transform="translate(-370.92 -201.987)" fill="none" stroke="#ff9300" stroke-linecap="round" stroke-linejoin="round" stroke-width="1.13"/>
        <path id="Path_155" data-name="Path 155" d="M403.31,235.13a2.15,2.15,0,1,1-2.15-2.15A2.154,2.154,0,0,1,403.31,235.13Z" transform="translate(-374.347 -197.057)" fill="none" stroke="#ff9300" stroke-linecap="round" stroke-linejoin="round" stroke-width="1.13"/>
        <path id="Path_156" data-name="Path 156" d="M406.17,265.53a2.15,2.15,0,1,1-2.15-2.15A2.148,2.148,0,0,1,406.17,265.53Z" transform="translate(-374.887 -202.794)" fill="none" stroke="#ff9300" stroke-linecap="round" stroke-linejoin="round" stroke-width="1.13"/>
        <path id="Path_157" data-name="Path 157" d="M399.02,290.02a2.15,2.15,0,1,1-2.15-2.15A2.148,2.148,0,0,1,399.02,290.02Z" transform="translate(-373.538 -207.417)" fill="none" stroke="#ff9300" stroke-linecap="round" stroke-linejoin="round" stroke-width="1.13"/>
      </g>
      <path id="Path_158" data-name="Path 158" d="M377.548,360.688c-3.172-4.9-8.218-18.448-8.218-18.448l2.093,11.066s3.456,6.7,5.4,10.6,3.821,10.125,6.344,11.5a24.36,24.36,0,0,0-.43-4.47C382.31,369.052,380.72,365.588,377.548,360.688Z" transform="translate(-366.459 -176.866)" fill="#f3faff"/>
      <path id="Path_159" data-name="Path 159" d="M390.007,183.925s7.788,5.728,12.867,8,10.49,3.026,14.059,1.623,9.192-14.384,4.649-22.269-5.079-8.543-5.079-8.543a6.33,6.33,0,0,0-.219-5.622c-1.623-2.807-4.105-5.3-5.947-5.4s-16.866,3.026-17.41,4-10.814,10.376-10.92,11.139-2.052,6.377-1.842,6.7S390.007,183.925,390.007,183.925Z" transform="translate(-368.501 -140.907)" fill="#1a0c4d"/>
      <path id="Path_160" data-name="Path 160" d="M387.7,181.412l-8.543-9.086a58.435,58.435,0,0,0,9.946-8.867c5.192-5.728,8.973-10.165,8.973-10.165s6.166,4.973,7.675,5.079a47.685,47.685,0,0,1,5.728,1.3s-3.894-6.92-3.57-8.543a12.865,12.865,0,0,1,.43-1.842s-7.894-8.543-12.323-10.376-12.648,1.842-12.648,1.842-9.622,3.894-12.112,7.788-4.219,13.3-2.807,17.621,5.622,8.543,7.675,9.4S387.7,181.412,387.7,181.412Z" transform="translate(-366.197 -138.394)" fill="#fcfef9"/>
      <path id="Path_161" data-name="Path 161" d="M392.025,208.626a13.653,13.653,0,0,1,6.847-.43,10.478,10.478,0,0,1,5.7,2.742l.649-1.225s.576,1.728,1.655,1.728c1.517,0,1.079-4.543,1.079-4.543s.941-.5.941-2.45a42.951,42.951,0,0,0-.649-5.549s-5.476-4.616-6.628-4.827a11.432,11.432,0,0,0-3.026.073,12.517,12.517,0,0,0-2.231-.146,3.33,3.33,0,0,0-1.079.219s-1.517-.722-2.231-.219-2.807,2.807-2.807,3.529,1.582,7.715,1.655,8.721C391.952,207.255,392.025,208.626,392.025,208.626Z" transform="translate(-370.405 -148.855)" fill="#fcfef9"/>
      <path id="Path_162" data-name="Path 162" d="M408.69,210.935a36.17,36.17,0,0,0,.868-5.4c0-1.655-.5-5.192-.5-5.192" transform="translate(-373.887 -150.085)" fill="none" stroke="#23779d" stroke-linecap="round" stroke-linejoin="round" stroke-miterlimit="10" stroke-width="0.871"/>
      <path id="Path_163" data-name="Path 163" d="M381.308,314.322s-.868,13.621-.868,16.436,30.057,20.76,30.277,23.786,5.549,102.35,5.549,102.35,4.827,1.444,13.475.576,10.449-2.6,10.449-2.6.308-59.588,1.006-72.438c.868-15.787,5.192-31.356,5.192-35.461s.292-10.019.292-10.019L455.8,300.7s-8.973-6.92-27.786-6.271-31.575,4.324-36.978,6.7S381.738,311.507,381.308,314.322Z" transform="translate(-368.555 -167.835)" fill="url(#linear-gradient-66)"/>
      <path id="Path_164" data-name="Path 164" d="M402.351,328.91l-11.82,4.178a47.012,47.012,0,0,0-12.542,2.166,29.2,29.2,0,0,0-8.648,4.47s5.046,13.548,8.218,18.448,4.754,8.364,5.192,10.238a24.36,24.36,0,0,1,.43,4.47,8.861,8.861,0,0,0,6.774-5.192c2.166-4.754,9.224-19.462,11.528-20.614s12.112-3.6,12.112-3.6S409.125,332.22,402.351,328.91Z" transform="translate(-366.461 -174.351)" fill="url(#linear-gradient-67)"/>
      <path id="Path_165" data-name="Path 165" d="M418.634,343.462s-4.47-11.244-11.244-14.562l-11.35,4.016c2.142.925,5.216,2.547,6.3,4.632l1.728,3.318,3.61,5.719C411.089,345.353,418.634,343.462,418.634,343.462Z" transform="translate(-371.5 -174.349)" fill="#b4b3fc"/>
      <path id="Path_166" data-name="Path 166" d="M432.435,311.9s-7.066-3.6-12.972-5.768-19.032-6.815-19.032-6.815,21.912-5.517,35.177-4.722c16.866,1.006,25.084,6.344,25.084,6.344Z" transform="translate(-372.328 -167.859)" fill="url(#linear-gradient-68)"/>
      <path id="Path_167" data-name="Path 167" d="M429.5,494.662s-.43,5.622-.292,6.2a3.015,3.015,0,0,0,4.616,1.874c3.172-1.728,5.622-4.178,10.238-4.754a33.334,33.334,0,0,1,6.052-.43,14.675,14.675,0,0,1-.722-3.456V492.22S438.152,495.384,429.5,494.662Z" transform="translate(-377.754 -205.172)" fill="#b4b3fc"/>
      <path id="Path_168" data-name="Path 168" d="M428.392,498.21a41.565,41.565,0,0,0-2.377,6.6c-.974,3.675-.43,10.052-.43,10.052s6.166,5.517,6.7,6.815,1.3,5.841,5.728,9.516,7.788,5.841,13.516,6.7,8.762,1.3,12.648.219S468.4,535.3,468.4,535.3l-.868-2.166s1.079-2.7-1.623-6.49-11.463-16.647-12-18.489-2.807-7.35-2.921-8.1-1.582-1.371-1.582-1.371a29.7,29.7,0,0,0-9.979,1.371c-4.324,1.623-6.6,4.754-8.437,4.324a2.955,2.955,0,0,1-2.377-2.921C428.611,500.482,428.392,498.21,428.392,498.21Z" transform="translate(-377.047 -206.303)" fill="url(#linear-gradient-69)"/>
      <path id="Path_169" data-name="Path 169" d="M452.735,542.474c-8.494-1.485-14.9-8.242-17.475-11.374a15.932,15.932,0,0,0,4.608,6.287c4.43,3.675,7.788,5.841,13.516,6.7s8.762,1.3,12.648.219,4.219-2.807,4.219-2.807l-.844-2.1C466.429,541.8,460.758,543.878,452.735,542.474Z" transform="translate(-378.902 -212.51)"/>
      <path id="Path_170" data-name="Path 170" d="M407.889,319.425c-.487-.316,69.631-25.806,77.265-30.561s16.144-8.072,24.362-5.476,10.952,13.986,7.2,21.482S483.995,341.2,476.791,343.65s-24.938,3.172-24.938,3.172V334.709l-29.838,6.344C422.022,341.045,422.6,328.941,407.889,319.425Z" transform="translate(-373.736 -165.588)" fill="url(#linear-gradient-70)"/>
      <path id="Path_171" data-name="Path 171" d="M519.439,322.01c-17.2,8.47-57.349,20.152-57.349,20.152v12.112s17.734-.722,24.938-3.172C492.31,349.309,509.265,333.36,519.439,322.01Z" transform="translate(-383.965 -173.048)" fill="url(#linear-gradient-66)"/>
    </g>
  </g>
</svg>
